<?xml version="1.0" encoding="utf-8"?>
<!-- Generator: Adobe Illustrator 19.0.0, SVG Export Plug-In . SVG Version: 6.00 Build 0)  -->
<svg version="1.1" id="Layer_1" xmlns="http://www.w3.org/2000/svg" xmlns:xlink="http://www.w3.org/1999/xlink" x="0px" y="0px"
	 viewBox="0 0 884 202" style="enable-background:new 0 0 884 202;" xml:space="preserve">
<style type="text/css">
	.st0{fill:#284C38;}
</style>
<g id="XMLID_86_">
	<g id="XMLID_460_">
		<g id="XMLID_461_">
			<g id="XMLID_462_">
				<path id="XMLID_140_" class="st0" d="M207.4,110.8c0-7.5,1.8-14.4,5.5-20.7c3.7-6.3,8.7-11.3,15-15c6.3-3.7,13.3-5.5,20.7-5.5
					c10.9,0,20.3,3.7,28.2,11.2c7.9,7.4,12.2,16.5,12.9,27.3c0.1,0.6,0.2,1.5,0.2,2.8c0,1.7-0.1,3.3-0.3,4.6h-74.6
					c1.1,8.3,4.8,15.3,11.2,21c6.4,5.6,13.9,8.4,22.4,8.4c4.6,0,9-0.9,13.2-2.7c4.2-1.8,7.8-4.2,10.9-7.3l5.2,5.2
					c-3.8,3.8-8.3,6.8-13.3,8.9c-5,2.1-10.4,3.2-16,3.2c-10.6,0-19.8-3.5-27.6-10.6c-7.8-7-12.2-15.8-13.3-26.1
					c-0.1-0.1-0.1-0.2-0.1-0.3C207.5,113.8,207.4,112.4,207.4,110.8z M215,108h67.5c-0.7-8.7-4.3-16-10.7-22c-6.5-6-14.1-9-23-9
					c-8.9,0-16.5,3-23,9C219.3,91.9,215.7,99.3,215,108z"/>
				<path id="XMLID_146_" class="st0" d="M302.4,131.5c-3.7-6.3-5.5-13.3-5.5-20.7c0-7.5,1.8-14.4,5.5-20.7c3.7-6.3,8.7-11.3,15-15
					c6.3-3.7,13.3-5.5,20.7-5.5c5.6,0,10.9,1.1,16,3.2c5,2.1,9.4,5.1,13.3,8.9l-5.2,5.2c-6.6-6.6-14.6-9.9-24-9.9
					c-9.3,0-17.3,3.3-24,9.9c-6.6,6.6-10,14.6-10,23.9c0,9.4,3.3,17.4,10,24c6.6,6.6,14.6,10,24,10c9.2,0,17.1-3.3,23.9-9.9l5.2,5.2
					c-8.1,8-17.8,12-29.1,12c-7.5,0-14.4-1.8-20.7-5.5C311.1,142.9,306,137.9,302.4,131.5z"/>
				<path id="XMLID_161_" class="st0" d="M376.6,140c-8.1-8.1-12.1-17.8-12.1-29.2c0-11.4,4-21.1,12.1-29.2
					c8.1-8.1,17.8-12.1,29.2-12.1c11.4,0,21.1,4,29.2,12.1c8.1,8.1,12.1,17.8,12.1,29.2c0,11.4-4,21.1-12.1,29.2
					c-8.1,8.1-17.8,12.1-29.2,12.1C394.4,152.2,384.7,148.1,376.6,140z M381.8,86.9c-6.6,6.6-10,14.6-10,24c0,9.3,3.3,17.3,10,24
					c6.6,6.6,14.6,10,24,10c9.3,0,17.3-3.3,24-10c6.6-6.6,10-14.6,10-24c0-9.3-3.3-17.3-10-24c-6.6-6.6-14.6-10-24-10
					C396.4,77,388.4,80.3,381.8,86.9z"/>
				<path id="XMLID_180_" class="st0" d="M584.1,140c-8.1-8.1-12.1-17.8-12.1-29.2c0-11.4,4-21.1,12.1-29.2
					c8.1-8.1,17.8-12.1,29.2-12.1c11.4,0,21.1,4,29.2,12.1c8.1,8.1,12.2,17.8,12.2,29.2c0,11.4-4.1,21.1-12.2,29.2
					c-8.1,8.1-17.9,12.1-29.2,12.1C601.9,152.2,592.2,148.1,584.1,140z M594.5,92.1c-5.2,5.2-7.8,11.5-7.8,18.8s2.6,13.6,7.8,18.7
					c5.2,5.2,11.4,7.8,18.7,7.8c7.3,0,13.6-2.6,18.8-7.8c5.2-5.2,7.8-11.4,7.8-18.7s-2.6-13.6-7.8-18.8c-5.2-5.2-11.5-7.8-18.8-7.8
					C605.9,84.3,599.7,86.9,594.5,92.1z"/>
				<path id="XMLID_198_" class="st0" d="M659.5,149.9V71.8h14.8v5.3v-0.1c5.3-3.5,11.2-5.2,17.7-5.2c9.1,0,16.9,3.3,23.4,10
					l-10.4,10.3c-3.5-3.7-7.9-5.6-13-5.6c-4.9,0-9.1,1.7-12.6,5.1c-3.4,3.4-5.2,7.6-5.2,12.5v27.1v18.5H659.5z"/>
				<path id="XMLID_200_" class="st0" d="M720.7,140c-8.1-8.1-12.1-17.8-12.1-29.2c0-11.4,4-21.1,12.1-29.2
					c8.1-8.1,17.8-12.1,29.2-12.1c10,0,18.8,3.2,26.5,9.7v-7.5h14.8v78.2h-14.8v-7.5c-7.7,6.5-16.5,9.7-26.5,9.7
					C738.5,152.2,728.8,148.1,720.7,140z M731.2,92.1c-5.2,5.2-7.8,11.5-7.8,18.8s2.6,13.6,7.8,18.7c5.2,5.2,11.5,7.8,18.8,7.8
					c7.3,0,13.5-2.6,18.7-7.8c5.2-5.2,7.8-11.4,7.8-18.7s-2.6-13.6-7.8-18.8c-5.2-5.2-11.4-7.8-18.7-7.8
					C742.6,84.3,736.4,86.9,731.2,92.1z"/>
				<path id="XMLID_213_" class="st0" d="M567,104.3V150h-15v-45.7c0-1.8-0.3-5.3-2.2-8.8c-3-5.3-9-8.9-15.5-8.8
					c-9.1,0.1-14.1,7.3-14.5,8.1c-2.5,3.8-2.8,7.7-2.8,9.5l0.1,0.1V150h-16v-45.7c0-1.5,0.4-6.2-2.7-10.6c-4.5-6.5-12-6.9-13.1-7
					c-1.7-0.1-7.2-0.1-11.9,4.2c-5.8,5.2-5.3,12.4-5.3,13.4c0,15.2,0,30.7,0,45.7h-16v-45.7c0-2.3,0.4-5.7,1.7-9.6
					c3.3-10.4,11.3-15.8,14-17.5c7-4.4,13.9-5.1,17.3-5.1h0c10.9,0,18.8,6.4,20.1,7.5c1.1,0.9,2.7,2.3,4.3,4.4c0,0,0.1-0.1,0.1-0.1
					c0,0,0.1,0.1,0.1,0.1c1-1.2,2.4-2.8,4.3-4.4c2.4-2,9.3-7.2,19.3-7.6c12.9-0.5,21.7,7.2,24,9.5c5.8,5.6,7.8,11.8,8.3,13.3
					C566.5,97.7,567,100.9,567,104.3z"/>
				<path id="XMLID_220_" class="st0" d="M865,104.3V150h-14v-45.7c0-1.3-0.7-8.1-6.7-13.1c-4.8-4-10.1-4.2-11.7-4.2h-0.1
					c-1.5,0-6.6,0.1-11.4,4c-6,5-6.2,12.1-6.2,13.2V150h-16c0-15,0-30.1,0-45.1c0-3.3,0.7-9.7,4.5-16.2c6.1-10.3,17.7-15.9,29-15.9
					c11.2,0,23.6,5.7,29.3,16.7C864.8,95.3,865,100.9,865,104.3z"/>
			</g>
		</g>
		<path id="XMLID_888_" class="st0" d="M837.4,113.9"/>
	</g>
	<g id="XMLID_402_">
		<path id="XMLID_459_" class="st0" d="M125.1,161.5l0-2.2l0.6-4.7l-0.4-5.1l-2.4-4.4l-10.4-54.5l0.1-14c-1.9-8-5.4-12.4-6.3-13.4
			c-0.1,0-0.1,0-0.2,0l-0.5,15.6l5.2,12.4l8.8,53.1l-2.8,0.2c0,0,0.3,7.8,0.3,8.3c0.3,2.9-6.4,4.5-6.4,4.5c-4.8-1-10.5,1.6-10.5,1.6
			l-6.5-0.5l-0.5-2c-1.2-21.6-13.3-34.7-13.3-34.7l0.7-4.2l-1-1.5l-3.6-4.5l0.9-0.3l6.6,0.6l1.4-2.8l1-1.5l-0.1-1.2l0.6-1.6
			l-0.2-1.9l2.6-1.3l-3-5.1c0,0,0.6-5.1,0.5-5.4c-0.1-0.3-4.4-8.9-4.4-8.9s-3.7-2.6-11.1-1.4c-7.5,1.2-10.5,6.1-11.6,10.7
			s4.3,13.2,4.3,13.2l-3.7-0.2c0,0-0.6,0.3-0.8,2.9c-0.2,2.6-1.2,3.8-1.2,3.8c-1.9-0.3-2.4,0.3-2.4,0.3l-0.3,4.1l-1.9,0.6
			c-1.7,1.4-3,7.8-3,7.8s-2.3,13.4-1.5,14.2c0.6,0.6,0.7,1,0.5,2.6c8.1,15.9,23.9,27.4,43,29.2l0,0c5.6,0.5,11,0.2,16.2-0.9l0.4-3.8
			c2.8-4.8,14.1-3.7,14.1-3.7l0.3,1.9c0.8-0.4,1.5-0.9,2.3-1.4L125.1,161.5z"/>
		<g id="XMLID_403_">
			<g id="XMLID_72_">
				<g id="XMLID_77_">
					<path id="XMLID_78_" class="st0" d="M172.2,81.2c-7.6-37,14.8-48.4,14.8-48.4c-2.3,3-5.6,7.7-8.5,14
						c-1.4,3.1-9.7,20.9-4.8,24.8c3.2,2.5,11.1-1.5,15.4-5.6c5.4-5.2,6.6-11.8,6.9-13.7c1.1-6.9-1.5-9.2-1.3-16.8
						c0.1-4.2,1-9.4,4-15.5c-17.8,3.1-31.6,14.9-34.9,29.6c-2.1,9.6,0.7,17.8,2.5,21.9c-2.8-4.3-12.4-17.9-31-24.6
						c-19-6.8-35.3-2-40.1-0.4l0,0c5.2-1.2,12.7,12.7,17.4,21.5c6.3,11.8,4.4,11,7.8,15.7c3,4.3,9.7,13.9,21.7,16.7
						c7.5,1.8,14.2,0.3,18.9-1.4C154.1,67.4,119,54.5,119,54.5c5.2,0.5,18.3,2.6,30,12.7c0,0,14.7,12.7,17.9,32.6
						c4.8,30-18.4,73-58.9,78.1c-35.6,4.5-66.6-23.1-73.8-53.2c-9-37.6,18.5-81.5,65.5-91.2c-35,1.5-65,25.1-74,57.7
						c-8.3,30.2,2.6,63.5,27.5,82.1c32.1,24,79.3,17.6,104.9-11.4C176.9,140.7,182.1,109.7,172.2,81.2z"/>
				</g>
				<g id="XMLID_75_">
					<path id="XMLID_76_" class="st0" d="M39.7,120c11.3,30.8,41.9,48.9,71.3,44.2c23.9-3.9,43.9-22.4,51.1-47.1
						c-3.9,31-30.3,54.4-61.1,54.6C71.1,171.8,44.9,149.9,39.7,120z"/>
				</g>
				<g id="XMLID_73_">
					<path id="XMLID_74_" class="st0" d="M145.1,22.8c0.5,3.2,1.4,7.2,3.3,11.7c2.2,5.2,4.9,9.1,7.1,11.8c1.8-1.4,4.6-4,5.4-8
						c1.3-6.2-2.8-11.6-4.5-13.8c-2.6-3.4-4-3.3-6.5-6.8c-2.7-3.6-3.8-7.2-4.4-9.8c-1.4,2.1-3.1,5.2-4.6,9.2
						c-0.9,2.5-2.6,7.3-2.4,11.8c0.5,10.2,10.8,17,12.7,18.2c-1.9-2.7-4.7-7.5-5.8-14.1C144.6,29,144.8,25.4,145.1,22.8z"/>
				</g>
			</g>
		</g>
	</g>
</g>
</svg>
